<svg id="Outline" xmlns="http://www.w3.org/2000/svg" width="40" height="40" viewBox="0 0 40 40">
  <defs>
    <style>
      .cls-1 {
        fill: none;
        
      }
    </style>
  </defs>
  <g>
    <path d="M35.93878,4.68567a.94038.94038,0,0,0-.03467-.096.89909.89909,0,0,0-.493-.49328.966.966,0,0,0-.09906-.03571.98591.98591,0,0,0-.24737-.04816.95822.95822,0,0,0-.09973-.00573.98955.98955,0,0,0-.33606.06445l-.00464.00183-.00086.00037L4.62891,16.07129a1.00036,1.00036,0,0,0,.01171,1.8623l12.58594,4.84034,4.83985,12.585A1.00066,1.00066,0,0,0,22.99316,36H23a1.00173,1.00173,0,0,0,.92871-.62842l12-30a.98815.98815,0,0,0,.06476-.338c.0011-.03265-.00354-.06354-.00562-.09613A.98614.98614,0,0,0,35.93878,4.68567Zm-5.09051,3.052L17.75281,20.83313,7.73828,16.98193Zm-7.82972,24.524-3.8518-10.01441L32.26239,9.15167Z"/>
    <rect class="cls-1" width="40" height="40"/>
  </g>
</svg>
